<?xml version="1.0" encoding="iso-8859-1"?>
<!-- Generator: Adobe Illustrator 19.0.0, SVG Export Plug-In . SVG Version: 6.00 Build 0)  -->
<svg version="1.1" id="Capa_1" xmlns="http://www.w3.org/2000/svg" xmlns:xlink="http://www.w3.org/1999/xlink" x="0px" y="0px"
	 viewBox="0 0 512 512" style="enable-background:new 0 0 512 512;" xml:space="preserve">
<g>
	<g>
		<path d="M330.999,367c0,16.542-13.458,30-30,30s-30-13.458-30-30v-21h30v-30h-90v30h30v21c0,16.542-13.458,30-30,30
			s-30-13.458-30-30h-30c0,28.456,19.919,52.331,46.541,58.459C203.668,452.081,227.543,472,255.999,472
			s52.331-19.919,58.459-46.541c26.622-6.128,46.541-30.003,46.541-58.459H330.999z M255.999,442
			c-12.144,0-22.617-7.257-27.333-17.658c10.691-3.301,20.106-9.522,27.333-17.72c7.226,8.197,16.641,14.418,27.333,17.72
			C278.616,434.743,268.143,442,255.999,442z"/>
	</g>
</g>
<g>
	<g>
		<path d="M456.93,212.157c-7.516-32.984-23.235-63.116-45.797-88.068c18.376-17.334,29.866-41.894,29.866-69.089V0h-130v65.008
			C296.559,61.682,281.68,60,266.552,60h-21.106c-15.128,0-30.007,1.682-44.447,5.008V0h-130v55
			c0,27.196,11.491,51.757,29.868,69.091c-22.711,25.123-38.487,55.483-45.938,88.681c-9.063,40.378-4.939,82.053,11.924,120.521
			l42.923,97.91C131.293,480.285,179.825,512,233.417,512h45.164c53.592,0,102.124-31.715,123.642-80.797l42.922-97.91
			C462.099,294.618,466.175,252.73,456.93,212.157z M340.999,30h70v25c0,35.841-29.159,65-65,65h-5V30z M100.999,30h70v90h-5
			c-35.841,0-65-29.159-65-65V30z M417.668,321.248l-42.922,97.91C358.011,457.333,320.264,482,278.581,482h-45.164
			c-41.683,0-79.429-24.667-96.165-62.842l-42.923-97.91c-27.138-61.906-14.615-131.57,31.626-180.113
			c12.176,5.684,25.744,8.865,40.044,8.865h35V95.944C215.316,91.998,230.221,90,245.446,90h21.106
			c15.225,0,30.13,1.998,44.447,5.944V150h35c14.294,0,27.858-3.18,40.03-8.859C431.572,189.188,444.421,260.224,417.668,321.248z"
			/>
	</g>
</g>
<g>
	<g>
		<circle cx="186" cy="241" r="20"/>
	</g>
</g>
<g>
	<g>
		<circle cx="326" cy="241" r="20"/>
	</g>
</g>
<g>
</g>
<g>
</g>
<g>
</g>
<g>
</g>
<g>
</g>
<g>
</g>
<g>
</g>
<g>
</g>
<g>
</g>
<g>
</g>
<g>
</g>
<g>
</g>
<g>
</g>
<g>
</g>
<g>
</g>
</svg>
