<?xml version="1.0" encoding="iso-8859-1"?>
<!-- Generator: Adobe Illustrator 19.0.0, SVG Export Plug-In . SVG Version: 6.00 Build 0)  -->
<svg version="1.1" id="Capa_1" xmlns="http://www.w3.org/2000/svg" xmlns:xlink="http://www.w3.org/1999/xlink" x="0px" y="0px"
	 viewBox="0 0 512 512" style="enable-background:new 0 0 512 512;" xml:space="preserve">
<g>
	<g>
		<path d="M461,140.26c29.187-6.812,51-33.028,51-64.26V0h-90v61H90V0H0v76c0,31.232,21.813,57.448,51,64.26V157
			c0,17.101,5.765,32.873,15.437,45.503C29.102,206.769,0,238.542,0,277v80c0,29.119,16.692,54.396,41,66.817V492h15
			c12.511,0,18.008,3.298,25.615,7.862C90.627,505.27,101.844,512,122.665,512c20.82,0,32.037-6.73,41.049-12.138
			c7.607-4.564,13.103-7.862,25.613-7.862c12.512,0,18.008,3.298,25.616,7.862c9.012,5.408,20.229,12.138,41.05,12.138
			c20.821,0,32.038-6.73,41.051-12.138c7.608-4.564,13.104-7.862,25.616-7.862c12.513,0,18.01,3.298,25.618,7.863
			C357.291,505.27,368.508,512,389.33,512c20.822,0,32.04-6.73,41.053-12.138C437.99,495.298,443.487,492,456,492h15v-68.183
			c24.308-12.42,41-37.698,41-66.817v-80c0-38.458-29.102-70.231-66.437-74.497C455.235,189.873,461,174.101,461,157V140.26z
			 M371,172v19.049c-0.845-1.012-1.734-1.996-2.678-2.94l-28.231-28.231C348.493,148.788,361.741,142,376,142h55v15
			c0,19.555-12.541,36.228-30,42.42V172H371z M347.109,209.322c2.509,2.509,3.891,5.845,3.891,9.394
			c0,7.325-5.959,13.284-13.284,13.284H321v-30h-30v30h-5c-8.271,0-15-6.729-15-15h-30c0,8.271-6.729,15-15,15h-5v-30h-30v30
			h-16.716c-7.325,0-13.284-5.959-13.284-13.284c0-3.548,1.382-6.884,3.891-9.394L256,118.213L347.109,209.322z M111,172v27.42
			c-17.459-6.192-30-22.865-30-42.42v-15h55c14.259,0,27.507,6.788,35.909,17.878l-28.231,28.231
			c-0.944,0.944-1.833,1.927-2.678,2.94V172H111z M66,112c-19.851,0-36-16.149-36-36V30h30v36c0,13.785,11.215,25,25,25h155.787
			l-47.553,47.553C179.186,122,158.339,112,136,112H66z M441.001,463.33H441c-11.757,2.231-19.489,6.87-26.052,10.807
			C407.34,478.702,401.843,482,389.33,482s-18.01-3.298-25.618-7.862C354.699,468.73,343.481,462,322.659,462
			c-20.821,0-32.038,6.73-41.051,12.138C274,478.702,268.504,482,255.992,482c-12.511,0-18.008-3.298-25.615-7.862
			C221.365,468.73,210.148,462,189.327,462c-20.821,0-32.037,6.73-41.049,12.138c-7.607,4.564-13.103,7.862-25.613,7.862
			c-12.511,0-18.007-3.298-25.614-7.862c-6.563-3.938-14.293-8.576-26.05-10.807v-31.439h370V463.33z M172.352,402
			c7.108-39.736,41.898-70,83.648-70s76.539,30.264,83.648,70H172.352z M482,277v80c0,24.813-20.187,45-45,45h-6v-45h-30v45h-30.978
			C362.649,345.65,314.328,302,256,302s-106.649,43.65-114.022,100H111v-45H81v45h-6c-24.813,0-45-20.187-45-45v-80
			c0-24.813,20.187-45,45-45h6v45h30v-45h22.094c5.621,17.387,21.957,30,41.19,30H226c11.515,0,22.033-4.347,30-11.486
			c7.967,7.139,18.485,11.486,30,11.486h51.716c19.234,0,35.569-12.613,41.19-30H401v45h30v-45h6C461.813,232,482,252.187,482,277z
			 M376,112c-22.339,0-43.186,10-57.234,26.553L271.213,91H427c13.785,0,25-11.215,25-25V30h30v46c0,19.851-16.149,36-36,36H376z"/>
	</g>
</g>
<g>
</g>
<g>
</g>
<g>
</g>
<g>
</g>
<g>
</g>
<g>
</g>
<g>
</g>
<g>
</g>
<g>
</g>
<g>
</g>
<g>
</g>
<g>
</g>
<g>
</g>
<g>
</g>
<g>
</g>
</svg>
