<?xml version="1.0" encoding="iso-8859-1"?>
<!-- Generator: Adobe Illustrator 19.0.0, SVG Export Plug-In . SVG Version: 6.00 Build 0)  -->
<svg version="1.1" id="Capa_1" xmlns="http://www.w3.org/2000/svg" xmlns:xlink="http://www.w3.org/1999/xlink" x="0px" y="0px"
	 viewBox="0 0 512 512" style="enable-background:new 0 0 512 512;" xml:space="preserve">
<g>
	<g>
		<polygon points="271,392 271,332 241,332 241,392 211,392 211,422 301,422 301,392 		"/>
	</g>
</g>
<g>
	<g>
		<circle cx="191" cy="246" r="20"/>
	</g>
</g>
<g>
	<g>
		<circle cx="321" cy="246" r="20"/>
	</g>
</g>
<g>
	<g>
		<path d="M371,131v-5c0-52.935,43.065-96,96-96V0h-40c-75.441,0-137.7,57.516-145.234,131h-51.532C222.7,57.516,160.441,0,85,0H45
			v30c52.935,0,96,43.065,96,96v5H0v16c0,47.28,34.719,86.598,80,93.812V246c0,40.012,31.499,72.807,71,74.895V452
			c0,33.084,26.916,60,60,60c17.908,0,33.997-7.896,45-20.377C267.003,504.104,283.092,512,301,512c33.084,0,60-26.916,60-60
			V320.895c39.501-2.087,71-34.882,71-74.895v-5.188c45.281-7.213,80-46.532,80-93.812v-16H371z M80,210.24
			c-24.148-5.727-43.131-24.95-48.482-49.24H80V210.24z M371.067,44.397C352.324,66.398,341,94.9,341,126v20c0,8.271-6.729,15-15,15
			s-15-6.729-15-15C311,102.303,335.283,64.173,371.067,44.397z M140.933,44.397C176.716,64.173,201,102.303,201,146
			c0,8.271-6.729,15-15,15s-15-6.729-15-15v-20C171,94.9,159.676,66.398,140.933,44.397z M402,246c0,24.813-20.187,45-45,45h-26v161
			c0,16.542-13.458,30-30,30s-30-13.458-30-30h-30c0,16.542-13.458,30-30,30s-30-13.458-30-30V291h-26c-24.813,0-45-20.187-45-45
			v-85h33.58c6.192,17.458,22.865,30,42.42,30s36.228-12.542,42.42-30h55.161c6.192,17.458,22.865,30,42.42,30
			s36.228-12.542,42.42-30H402V246z M432,210.24V161h48.482C475.13,185.29,456.148,204.513,432,210.24z"/>
	</g>
</g>
<g>
</g>
<g>
</g>
<g>
</g>
<g>
</g>
<g>
</g>
<g>
</g>
<g>
</g>
<g>
</g>
<g>
</g>
<g>
</g>
<g>
</g>
<g>
</g>
<g>
</g>
<g>
</g>
<g>
</g>
</svg>
