<?xml version="1.0" encoding="iso-8859-1"?>
<!-- Generator: Adobe Illustrator 19.0.0, SVG Export Plug-In . SVG Version: 6.00 Build 0)  -->
<svg version="1.1" id="Capa_1" xmlns="http://www.w3.org/2000/svg" xmlns:xlink="http://www.w3.org/1999/xlink" x="0px" y="0px"
	 viewBox="0 0 512 512" style="enable-background:new 0 0 512 512;" xml:space="preserve">
<g>
	<g>
		<circle cx="140.5" cy="427" r="20"/>
	</g>
</g>
<g>
	<g>
		<circle cx="170.5" cy="271" r="20"/>
	</g>
</g>
<g>
	<g>
		<path d="M296.5,80h-47.183C242.104,34.718,202.78,0,155.5,0h-16v80h-14c-57.897,0-105,47.103-105,105v172
			c0,85.467,69.533,155,155,155c41.355,0,75-33.645,75-75v-82.42c17.459,6.192,30,22.865,30,42.42v40c0,41.355,33.645,75,75,75
			h6.213L491.5,382.213V275C491.5,167.477,404.023,80,296.5,80z M50.5,185c0-41.355,33.645-75,75-75h12.992
			c-6.368,47.38-42.444,85.009-87.992,91.873V185z M349.664,481.623C327.598,478.752,310.5,459.835,310.5,437v-40
			c0-26.384-13.706-49.612-34.36-62.985c8.914-9.779,14.36-22.771,14.36-37.015v-81h-30v81c0,13.785-11.215,25-25,25h-15v115
			c0,24.813-20.187,45-45,45c-68.925,0-125-56.075-125-125V232.143c30.774-3.5,59.091-17.743,80.934-40.999
			C155.625,165.387,169.5,130.344,169.5,95V31.518c29.136,6.419,51,32.445,51,63.482v15h40v26c0,30.327,24.673,55,55,55
			c8.271,0,15,6.729,15,15c0,24.813,20.187,45,45,45c8.271,0,15,6.729,15,15v37.574c0,12.02,4.681,23.32,13.18,31.819l46.107,46.107
			L349.664,481.623z M461.5,350.787l-36.607-36.607c-2.833-2.833-4.393-6.6-4.393-10.606V266c0-24.813-20.187-45-45-45
			c-8.271,0-15-6.729-15-15c0-24.813-20.187-45-45-45c-13.785,0-25-11.215-25-25v-26h6c90.981,0,165,74.019,165,165V350.787z"/>
	</g>
</g>
<g>
</g>
<g>
</g>
<g>
</g>
<g>
</g>
<g>
</g>
<g>
</g>
<g>
</g>
<g>
</g>
<g>
</g>
<g>
</g>
<g>
</g>
<g>
</g>
<g>
</g>
<g>
</g>
<g>
</g>
</svg>
