<?xml version="1.0" encoding="iso-8859-1"?>
<!-- Generator: Adobe Illustrator 19.0.0, SVG Export Plug-In . SVG Version: 6.00 Build 0)  -->
<svg version="1.1" id="Capa_1" xmlns="http://www.w3.org/2000/svg" xmlns:xlink="http://www.w3.org/1999/xlink" x="0px" y="0px"
	 viewBox="0 0 512 512" style="enable-background:new 0 0 512 512;" xml:space="preserve">
<g>
	<g>
		<path d="M391.018,231.728l-9.104-36.418c-8.362-33.449-38.282-56.81-72.761-56.81H202.847c-34.479,0-64.398,23.361-72.761,56.81
			l-9.104,36.417c-3.437,13.745-0.407,28.033,8.313,39.201c8.719,11.167,21.846,17.572,36.014,17.572
			c8.652,0,15.691,7.039,15.691,15.691V333.5c0,41.355,33.645,75,75,75s75-33.645,75-75v-29.309c0-8.652,7.039-15.691,15.691-15.691
			c14.168,0,27.295-6.405,36.014-17.572C391.425,259.761,394.454,245.472,391.018,231.728z M359.059,252.465
			c-2.994,3.835-7.502,6.035-12.367,6.035c-25.194,0-45.691,20.497-45.691,45.691V333.5c0,24.813-20.187,45-45,45s-45-20.187-45-45
			v-29.309c0-25.194-20.497-45.691-45.691-45.691c-4.865,0-9.373-2.2-12.367-6.035c-2.995-3.835-4.035-8.742-2.855-13.462
			l9.104-36.417c5.018-20.069,22.97-34.086,43.657-34.086h106.307c20.688,0,38.64,14.017,43.657,34.085l9.104,36.418
			C363.094,243.724,362.054,248.63,359.059,252.465z"/>
	</g>
</g>
<g>
	<g>
		<circle cx="216" cy="218.5" r="20"/>
	</g>
</g>
<g>
	<g>
		<circle cx="296" cy="218.5" r="20"/>
	</g>
</g>
<g>
	<g>
		<rect x="236" y="288.5" width="40" height="30"/>
	</g>
</g>
<g>
	<g>
		<path d="M512,97.5c0-41.355-33.645-75-75-75c-30.33,0-56.906,18.385-68.625,44.82C334.545,47.87,296.072,37.5,256,37.5
			c-40.054,0-78.511,10.36-112.33,29.793C131.996,40.697,105.464,22.5,75,22.5c-41.355,0-75,33.645-75,75
			c0,32.898,21.301,60.897,50.829,70.98C37.196,197.875,30,230.133,30,263.5c0,60.367,23.508,117.121,66.193,159.806
			C138.88,465.992,195.633,489.5,256,489.5s117.12-23.508,159.807-66.194C458.492,380.621,482,323.867,482,263.5
			c0-33.367-7.196-65.625-20.829-95.02C490.699,158.397,512,130.398,512,97.5z M30,97.5c0-24.813,20.187-45,45-45
			c20.161,0,37.457,13.267,43.079,31.932c-7.635,5.905-14.948,12.326-21.885,19.262c-11.633,11.632-21.829,24.316-30.525,37.827
			C45.319,137.211,30,119.114,30,97.5z M256,459.5c-108.075,0-196-87.925-196-196s87.925-196,196-196s196,87.925,196,196
			S364.075,459.5,256,459.5z M446.332,141.521c-8.697-13.51-18.893-26.194-30.525-37.827c-6.93-6.93-14.237-13.346-21.865-19.247
			C399.584,65.925,416.919,52.5,437,52.5c24.813,0,45,20.187,45,45C482,119.114,466.681,137.211,446.332,141.521z"/>
	</g>
</g>
<g>
</g>
<g>
</g>
<g>
</g>
<g>
</g>
<g>
</g>
<g>
</g>
<g>
</g>
<g>
</g>
<g>
</g>
<g>
</g>
<g>
</g>
<g>
</g>
<g>
</g>
<g>
</g>
<g>
</g>
</svg>
