<?xml version="1.0" encoding="iso-8859-1"?>
<!-- Generator: Adobe Illustrator 19.0.0, SVG Export Plug-In . SVG Version: 6.00 Build 0)  -->
<svg version="1.1" id="Capa_1" xmlns="http://www.w3.org/2000/svg" xmlns:xlink="http://www.w3.org/1999/xlink" x="0px" y="0px"
	 viewBox="0 0 512 512" style="enable-background:new 0 0 512 512;" xml:space="preserve">
<g>
	<g>
		<circle cx="216" cy="436" r="20"/>
	</g>
</g>
<g>
	<g>
		<circle cx="296" cy="436" r="20"/>
	</g>
</g>
<g>
	<g>
		<circle cx="191" cy="246" r="20"/>
	</g>
</g>
<g>
	<g>
		<circle cx="321" cy="246" r="20"/>
	</g>
</g>
<g>
	<g>
		<path d="M512,40V0h-30c0,52.935-43.065,96-96,96h-5V86H131v10h-5C73.065,96,30,52.935,30,0H0v40
			c0,52.092,27.429,97.892,68.597,123.737C29.019,175.205,0,211.775,0,255v16h97.204l22.538,151.455
			c3.703,24.885,16.236,47.639,35.292,64.068C174.088,502.952,198.438,512,223.598,512h64.804c25.16,0,49.51-9.048,68.564-25.477
			c19.055-16.429,31.588-39.183,35.292-64.068L414.796,271H512v-16c0-43.225-29.019-79.795-68.597-91.263
			C484.571,137.892,512,92.092,512,40z M161,116h190v50H161V116z M31.518,241c5.734-26.028,27.12-46.238,53.743-50.257L92.74,241
			H31.518z M44.397,95.933C66.398,114.676,94.9,126,126,126h5v29.021C93.684,150.181,61.873,127.554,44.397,95.933z
			 M362.585,418.039C357.159,454.503,325.267,482,288.402,482h-64.804c-36.865,0-68.757-27.497-74.183-63.961l-35.045-235.5
			c5.438,1.206,10.985,2.116,16.63,2.695V196h110v160h-60v30h150v-30h-60V196h110v-10.766c5.645-0.579,11.192-1.489,16.63-2.695
			L362.585,418.039z M480.482,241H419.26l7.479-50.257C453.362,194.762,474.748,214.972,480.482,241z M381,155.021V126h5
			c31.1,0,59.602-11.324,81.603-30.067C450.127,127.554,418.316,150.181,381,155.021z"/>
	</g>
</g>
<g>
</g>
<g>
</g>
<g>
</g>
<g>
</g>
<g>
</g>
<g>
</g>
<g>
</g>
<g>
</g>
<g>
</g>
<g>
</g>
<g>
</g>
<g>
</g>
<g>
</g>
<g>
</g>
<g>
</g>
</svg>
