<?xml version="1.0" encoding="iso-8859-1"?>
<!-- Generator: Adobe Illustrator 19.0.0, SVG Export Plug-In . SVG Version: 6.00 Build 0)  -->
<svg version="1.1" id="Capa_1" xmlns="http://www.w3.org/2000/svg" xmlns:xlink="http://www.w3.org/1999/xlink" x="0px" y="0px"
	 viewBox="0 0 512 512" style="enable-background:new 0 0 512 512;" xml:space="preserve">
<g>
	<g>
		<circle cx="216" cy="362" r="20"/>
	</g>
</g>
<g>
	<g>
		<circle cx="296" cy="362" r="20"/>
	</g>
</g>
<g>
	<g>
		<path d="M256,282c-67.29,0-120,35.14-120,80s52.71,80,120,80s120-35.14,120-80S323.29,282,256,282z M322.351,395.208
			C304.858,406.037,281.295,412,256,412c-25.295,0-48.858-5.963-66.351-16.792C180.816,389.74,166,378.156,166,362
			s14.816-27.74,23.649-33.208C207.142,317.963,230.705,312,256,312s48.858,5.963,66.351,16.792C331.184,334.26,346,345.844,346,362
			S331.184,389.74,322.351,395.208z"/>
	</g>
</g>
<g>
	<g>
		<circle cx="186" cy="236" r="20"/>
	</g>
</g>
<g>
	<g>
		<circle cx="326" cy="236" r="20"/>
	</g>
</g>
<g>
	<g>
		<path d="M429.683,109.932C436.899,96.546,441,81.243,441,65V10H311v45.232C293.014,51.76,274.589,50,256,50
			c-18.595,0-37.015,1.764-55,5.237V10H71v55c0,16.244,4.101,31.546,11.317,44.932C29.827,152.684,0,212.49,0,276
			c0,60.748,26.887,117.743,75.706,160.485C123.961,478.733,187.99,502,256,502s132.039-23.267,180.294-65.515
			C485.113,393.743,512,336.748,512,276C512,212.49,482.174,152.684,429.683,109.932z M341,40h70v25c0,35.841-29.159,65-65,65h-5V40
			z M101,40h70v90h-5c-35.841,0-65-29.159-65-65V40z M256,472c-124.617,0-226-87.925-226-196
			c0-54.065,25.553-105.222,70.547-142.208C117.599,150.023,140.656,160,166,160h35V85.852C218.902,81.967,237.346,80,256,80
			c18.648,0,37.097,1.971,55,5.855V160h35c25.344,0,48.401-9.977,65.453-26.208C456.447,170.778,482,221.935,482,276
			C482,384.075,380.617,472,256,472z"/>
	</g>
</g>
<g>
</g>
<g>
</g>
<g>
</g>
<g>
</g>
<g>
</g>
<g>
</g>
<g>
</g>
<g>
</g>
<g>
</g>
<g>
</g>
<g>
</g>
<g>
</g>
<g>
</g>
<g>
</g>
<g>
</g>
</svg>
