<?xml version="1.0" encoding="iso-8859-1"?>
<!-- Generator: Adobe Illustrator 19.0.0, SVG Export Plug-In . SVG Version: 6.00 Build 0)  -->
<svg version="1.1" id="Capa_1" xmlns="http://www.w3.org/2000/svg" xmlns:xlink="http://www.w3.org/1999/xlink" x="0px" y="0px"
	 viewBox="0 0 512 512" style="enable-background:new 0 0 512 512;" xml:space="preserve">
<g>
	<g>
		<path d="M418.921,297.631c-2.177-3.692-4.335-7.354-6.431-11.071l15.748-31.496c27.933-55.865,27.323-122.259-1.631-177.603
			L386.081,0H367.48l-4.499,6.024c-20.025,26.814-35.529,56.515-46.08,88.275c-10.384,31.254-15.729,63.779-15.897,96.701h-90.008
			c-0.168-32.921-5.514-65.446-15.897-96.701c-10.551-31.76-26.055-61.46-46.08-88.275L144.52,0h-18.601L85.393,77.461
			c-28.954,55.344-29.563,121.737-1.631,177.603L99.51,286.56c-2.096,3.718-4.254,7.379-6.431,11.071
			C77.308,324.376,61,352.032,61,407c0,57.897,47.103,105,105,105c18.847,0,36.547-4.995,51.854-13.725
			C228.507,507.02,242.022,512,256,512c14.224,0,27.577-4.879,38.198-13.695C309.493,507.016,327.175,512,346,512
			c57.897,0,105-47.103,105-105C451,352.032,434.692,324.376,418.921,297.631z M391,74.117l9.025,17.251
			c24.5,46.829,25.016,103.008,1.381,150.279l-4.489,8.977C393.263,237.741,391,222.604,391,203.5V74.117z M111.975,91.368
			L121,74.117V203.5c0,19.104-2.263,34.241-5.918,47.125l-4.488-8.978C86.959,194.376,87.475,138.197,111.975,91.368z M256,482
			c-4.786,0-9.375-1.106-13.486-3.174c5.096-5.425,9.624-11.388,13.486-17.797c3.862,6.409,8.39,12.373,13.486,17.797
			C265.376,480.893,260.786,482,256,482z M346,482c-41.355,0-75-33.645-75-75h30v-30h-90v30h30c0,41.355-33.645,75-75,75
			s-75-33.645-75-75c0-46.782,13.563-69.781,27.921-94.131C134.692,286.124,151,258.468,151,203.5V66.236
			c19.528,39.063,30,82.583,30,126.364V221h150v-28.4c0-43.781,10.472-87.301,30-126.364V203.5
			c0,54.968,16.308,82.624,32.079,109.369C407.438,337.219,421,360.218,421,407C421,448.355,387.355,482,346,482z"/>
	</g>
</g>
<g>
	<g>
		<circle cx="186" cy="331" r="20"/>
	</g>
</g>
<g>
	<g>
		<circle cx="326" cy="331" r="20"/>
	</g>
</g>
<g>
</g>
<g>
</g>
<g>
</g>
<g>
</g>
<g>
</g>
<g>
</g>
<g>
</g>
<g>
</g>
<g>
</g>
<g>
</g>
<g>
</g>
<g>
</g>
<g>
</g>
<g>
</g>
<g>
</g>
</svg>
