<?xml version="1.0" encoding="iso-8859-1"?>
<!-- Generator: Adobe Illustrator 19.0.0, SVG Export Plug-In . SVG Version: 6.00 Build 0)  -->
<svg version="1.1" id="Capa_1" xmlns="http://www.w3.org/2000/svg" xmlns:xlink="http://www.w3.org/1999/xlink" x="0px" y="0px"
	 viewBox="0 0 512 512" style="enable-background:new 0 0 512 512;" xml:space="preserve">
<g>
	<g>
		<circle cx="206" cy="236" r="20"/>
	</g>
</g>
<g>
	<g>
		<circle cx="306" cy="236" r="20"/>
	</g>
</g>
<g>
	<g>
		<path d="M397.19,294.238c24.999-29.374,31.809-68.641,18.597-104.267c0.405,0.005,0.807,0.029,1.213,0.029
			c52.383,0,95-42.617,95-95S469.383,0,417,0s-95,42.617-95,95c0,9.109,1.268,18.01,3.735,26.53c-2.81-0.22-5.646-0.343-8.508-0.343
			H194.772c-2.862,0-5.698,0.123-8.508,0.343C188.731,113.01,190,104.109,190,95c0-52.383-42.617-95-95-95S0,42.617,0,95
			s42.617,95,95,95c0.406,0,0.808-0.023,1.213-0.029c-13.212,35.626-6.402,74.893,18.597,104.267L137.584,321H0v30h163.115
			l15.077,17.716L27.786,391.165l4.428,29.671l168.882-25.207l29.282,34.408C218.679,438.172,211,451.703,211,467
			c0,24.813,20.187,45,45,45s45-20.187,45-45c0-15.297-7.679-28.828-19.378-36.963l29.188-34.297l168.987,25.097l4.406-29.675
			l-150.479-22.348L348.885,351H512v-30H374.416L397.19,294.238z M417,30c35.841,0,65,29.159,65,65s-29.159,65-65,65
			c-7.254,0-14.329-1.182-21.087-3.501c-9.157-10.44-20.224-18.843-32.583-24.833C355.912,120.854,352,108.252,352,95
			C352,59.159,381.159,30,417,30z M116.087,156.499C109.33,158.818,102.254,160,95,160c-35.841,0-65-29.159-65-65s29.159-65,65-65
			s65,29.159,65,65c0,13.252-3.913,25.854-11.331,36.666C136.311,137.656,125.245,146.059,116.087,156.499z M256,482
			c-8.271,0-15-6.729-15-15s6.729-15,15-15s15,6.729,15,15S264.271,482,256,482z M256,413.855l-118.345-139.06
			c-19.174-22.53-23.376-53.21-10.966-80.066c12.409-26.857,38.497-43.541,68.083-43.541h122.455
			c29.586,0,55.674,16.684,68.083,43.541c12.41,26.856,8.208,57.536-10.966,80.066L256,413.855z"/>
	</g>
</g>
<g>
</g>
<g>
</g>
<g>
</g>
<g>
</g>
<g>
</g>
<g>
</g>
<g>
</g>
<g>
</g>
<g>
</g>
<g>
</g>
<g>
</g>
<g>
</g>
<g>
</g>
<g>
</g>
<g>
</g>
</svg>
