<?xml version="1.0" encoding="iso-8859-1"?>
<!-- Generator: Adobe Illustrator 19.0.0, SVG Export Plug-In . SVG Version: 6.00 Build 0)  -->
<svg version="1.1" id="Capa_1" xmlns="http://www.w3.org/2000/svg" xmlns:xlink="http://www.w3.org/1999/xlink" x="0px" y="0px"
	 viewBox="0 0 512 512" style="enable-background:new 0 0 512 512;" xml:space="preserve">
<g>
	<g>
		<path d="M432.335,296.417v-23.514c0-60.679-49.366-110.045-110.045-110.045c-53.357,0-97.966,38.167-107.955,88.636
			c-2.91-3.822-3.974-8.673-2.918-13.376l23.07-102.856c5.014-22.352-0.322-45.428-14.638-63.312
			c-5.694-7.113-12.504-13.014-20.079-17.549c17.557,8.156,36.688,12.418,56.291,12.418h42.886V36.808h-42.886
			c-20.66,0-40.651-6.081-57.813-17.587L169.582,0l-16.713,24.928l28.668,19.221c3.048,2.044,6.172,3.941,9.352,5.717
			c-9.216-3.952-19.253-6.055-29.612-6.055h-4.053c-12.504,0-22.894,9.224-24.724,21.226l-26.396,28.795h36.672l-41.421,41.421
			l21.222,21.222l53.369-53.369c0.899,1.313,1.681,2.747,2.323,4.298c3.52,8.498,1.739,17.455-4.766,23.959l-70.266,70.266
			c-15.303,15.302-24.997,35.58-27.298,57.1c-2.301,21.519,2.888,43.389,14.61,61.58l104.18,161.681h-23.5V512h120.049v-30.012
			h-29.842l-11.964-56.827c-2.39-11.353,0.432-23.03,7.741-32.039c7.311-9.009,18.155-14.176,29.757-14.176
			c21.13,0,38.321,17.191,38.321,38.321v32.708h23.639c0,0,30.52-41.928,31.184-42.939l18.442,6.148l28.425-52.882
			C437.76,340.246,439.372,317.141,432.335,296.417z M400.546,346.093l-2.92,5.431c-9.305-27.756-32.272-49.243-61.893-56.213
			l-18.443-4.34v29.761l19.417,8.494c10.252,4.486,18.149,12.693,22.235,23.111c5.259,13.413,3.333,28.372-5.151,40.014
			l-2.119,2.908c-9.18-26.916-34.714-46.327-64.698-46.327c-20.687,0-40.027,9.213-53.063,25.278
			c-13.035,16.065-18.066,36.888-13.805,57.132l10.662,50.645h-0.334L115.777,304.051c-16.466-25.555-12.815-59.706,8.682-81.202
			l70.266-70.266c2.706-2.706,5.067-5.621,7.072-8.698l-19.663,87.664c-3.089,13.776,0.198,27.997,9.022,39.018
			c8.824,11.02,21.98,17.342,36.098,17.342h15.006v-15.006c0-44.13,35.903-80.033,80.033-80.033
			c36.75,0,67.794,24.899,77.149,58.712l-39.325-12.901l-9.623,28.428l23.284,7.882c8.45,3.157,15.909,8.532,21.58,15.551
			C408.14,306.369,410.176,328.173,400.546,346.093z"/>
	</g>
</g>
<g>
</g>
<g>
</g>
<g>
</g>
<g>
</g>
<g>
</g>
<g>
</g>
<g>
</g>
<g>
</g>
<g>
</g>
<g>
</g>
<g>
</g>
<g>
</g>
<g>
</g>
<g>
</g>
<g>
</g>
</svg>
