<?xml version="1.0" encoding="iso-8859-1"?>
<!-- Generator: Adobe Illustrator 19.0.0, SVG Export Plug-In . SVG Version: 6.00 Build 0)  -->
<svg version="1.1" id="Capa_1" xmlns="http://www.w3.org/2000/svg" xmlns:xlink="http://www.w3.org/1999/xlink" x="0px" y="0px"
	 viewBox="0 0 512 512" style="enable-background:new 0 0 512 512;" xml:space="preserve">
<g>
	<g>
		<path d="M490.033,247.32L441,198.287V20.5h-16c-50.368,0-91.698,39.402-94.805,89h-149.39c-3.107-49.598-44.438-89-94.805-89H71
			v177.787L21.967,247.32C7.801,261.485,0,280.317,0,300.346V431.5h152.509c6.968,34.192,37.272,60,73.491,60h59
			c36.219,0,66.522-25.808,73.491-60H512V300.346C512,280.317,504.199,261.485,490.033,247.32z M151,322.039l-82,3v32.923l82,3
			V401.5H30V300.346c0-12.016,4.681-23.314,13.18-31.813L151,160.713V322.039z M151,118.287l-50,50V52.247
			c28.635,6.789,50,32.573,50,63.253V118.287z M285,461.5h-59c-19.555,0-36.228-12.542-42.42-30h143.84
			C321.228,448.958,304.555,461.5,285,461.5z M330,401.5H181v-60h30v30h30v-30h30v30h30v-30h29V401.5z M330,311.5h-59v-30h30v-30
			h-90v30h30v30h-60v-172h55.539l3,82h32.923l3-82H330V311.5z M360,115.5c0-31.037,21.864-57.063,51-63.482v116.269l-51-51V115.5z
			 M482,401.5H360v-40.539l82-3v-32.923l-82-3V159.713l108.82,108.82c8.5,8.5,13.18,19.798,13.18,31.813V401.5z"/>
	</g>
</g>
<g>
	<g>
		<circle cx="106" cy="266.5" r="20"/>
	</g>
</g>
<g>
	<g>
		<circle cx="406" cy="266.5" r="20"/>
	</g>
</g>
<g>
</g>
<g>
</g>
<g>
</g>
<g>
</g>
<g>
</g>
<g>
</g>
<g>
</g>
<g>
</g>
<g>
</g>
<g>
</g>
<g>
</g>
<g>
</g>
<g>
</g>
<g>
</g>
<g>
</g>
</svg>
